<svg version="1.2" xmlns="http://www.w3.org/2000/svg" viewBox="0 0 1549 547" width="1549" height="547">
	<title>dws_logo_claim_black_pageframe-svg</title>
	<style>
		.s0 { fill: #ffffff } 
	</style>
	<path id="Layer" class="s0" d="m512 0l-342.5 402.9v78.4l342.5-402.8v-78.5zm-512 468.4v78.4l342.5-402.9v-78.4l-342.5 402.9z"/>
	<path id="Layer" fill-rule="evenodd" class="s0" d="m1432.1 283.1c51.9 11.4 116.9 27.3 116.9 94.5v1.9c-0.6 64.8-58.9 108.3-145.4 108.3-130.8 0-132.3-83.5-132.3-115v-2.9h78.7v3.6q-0.3 4.6 0.1 9.1 0.3 4.5 1.3 8.9 0.9 4.5 2.4 8.7 1.5 4.3 3.5 8.4c8.9 15.5 25.8 23.2 50.4 23.2 36.8 0 60.6-15.2 60.6-42.9 0-27.7-19.7-31.8-61.2-41.5-103.7-25.5-124.8-57.9-124.8-102 0-51.1 35.5-105.8 135-105.8 26.1 0 74.3 5.7 103.4 41.6 3.3 4.4 6.2 9.1 8.7 14.1 2.5 5 4.6 10.1 6.2 15.4 1.6 5.4 2.7 10.8 3.3 16.3 0.7 5.5 0.8 11.1 0.5 16.6v2.8h-74.6v-2.6c0.3-6.6-0.9-13.2-3.5-19.3-2.5-6.1-6.4-11.5-11.2-16-4.9-4.5-10.6-7.8-16.9-9.9-6.3-2-12.9-2.7-19.5-1.9-31.7 0-52.1 16.3-52.1 41.5 0 27.4 21.2 32.7 67.8 44.1l2.6 0.7m-296 93.7l50.3-230h74.4l-84.4 334.2h-84.6l-55.9-237.6-61.5 237.6h-82l-80.7-334.2h80l47.9 230.4 57.5-230.4h83.7zm-397-199.9c49.8 36.7 57.2 98.5 57.2 131.9 0.5 10.5 0.1 21-1.2 31.4-1.3 10.4-3.5 20.7-6.5 30.8-3 10.1-6.9 19.9-11.6 29.3-4.6 9.4-10.1 18.4-16.3 26.9-5.1 6.5-10.7 12.6-16.9 18.1-6.2 5.5-12.9 10.4-20 14.7-7.1 4.2-14.6 7.8-22.3 10.8-7.8 2.9-15.8 5.1-23.9 6.5q-7.4 1.2-14.9 2-7.5 0.8-15 1.3-7.5 0.4-15 0.5-7.5 0.1-15-0.2h-105.6v-333.6h112c49.3 0 87.7 10.1 115.4 30.2zm-52.5 223.5c26.1-26 28.8-72.3 28.8-91.1 0-30.9-7.5-85.1-58-98.9q-5.4-1.1-10.8-1.9-5.5-0.7-11-1.1-5.4-0.4-10.9-0.4-5.5 0-11 0.3h-20.2v213.5h18.6c27.7 0 54.3-0.7 74.5-20.9z"/>
</svg>