<svg xmlns="http://www.w3.org/2000/svg" width="32" height="32" id="money">
  <path fill="none" stroke="#f9aa36" stroke-dashoffset=".5" stroke-linecap="round" stroke-linejoin="round" d="M-89 1202.862h6c.831 0 1.5.67 1.5 1.5v1.5h-9v-1.5c0-.83.669-1.5 1.5-1.5z" color="#000" overflow="visible" style="isolation:auto;mix-blend-mode:normal" transform="translate(101.5 -1198.862)"></path>
  <path fill="#406b95" d="M0 7h31v18.5c0 1.385-1.115 2.5-2.5 2.5h-26A2.495 2.495 0 0 1 0 25.5v-16z"></path>
  <path fill="#406b95" d="M9.027 16.833H1.5c-.831 0-1.5-.669-1.5-1.5V6.5h31v8.833c0 .831-.669 1.5-1.5 1.5h-8.273"></path>
  <path fill="#0c5286" d="M0 15.334v.998c0 .831.669 1.5 1.5 1.5h28c.831 0 1.5-.669 1.5-1.5v-.998c0 .831-.669 1.5-1.5 1.5h-28c-.831 0-1.5-.669-1.5-1.5z"></path>
  <path fill="#f9bc36" d="M21.242 17c0 3.312-2.699 6-6.018 6-3.32 0-5.983-2.688-5.983-6 0-3.311 2.663-6 5.983-6s6.018 2.689 6.018 6z"></path>
  <path fill="#f9aa36" fill-rule="evenodd" d="M-88.73 191.5v.01h-.024v1h1.027c.936 0 1.408.441 1.579.99h-2.582v1h2.582c-.171.548-.644.99-1.579.99h-1.027v.721l-.004.004.004.004v.272h.266l3.086 3.011.697-.716-2.412-2.356c1.095-.222 1.8-1.034 1.994-1.93h1.365v-1h-1.365c-.078-.36-.245-.7-.48-1h1.845v-1h-4.972z" color="#000" font-family="sans-serif" font-weight="400" overflow="visible" style="line-height:normal;text-indent:0;text-align:start;text-decoration-line:none;text-decoration-style:solid;text-decoration-color:#000;text-transform:none;block-progression:tb;isolation:auto;mix-blend-mode:normal" transform="translate(101.5 -178.5)"></path>
  <path fill="none" stroke="#f9aa36" stroke-linecap="round" stroke-linejoin="round" stroke-miterlimit="34.178" d="M21.242 17c0 3.312-2.699 6-6.018 6-3.32 0-5.983-2.688-5.983-6 0-3.311 2.663-6 5.983-6s6.018 2.689 6.018 6h0z"></path>
</svg>
